<svg width="24" height="25" viewBox="0 0 24 25" fill="none" xmlns="http://www.w3.org/2000/svg">
<path d="M22 23.25H5C2.93 23.25 1.25 21.57 1.25 19.5V2.5C1.25 2.09 1.59 1.75 2 1.75C2.41 1.75 2.75 2.09 2.75 2.5V19.5C2.75 20.74 3.76 21.75 5 21.75H22C22.41 21.75 22.75 22.09 22.75 22.5C22.75 22.91 22.41 23.25 22 23.25Z" fill="#F6D047"/>
<path d="M5.00001 18.2499C4.83001 18.2499 4.65001 18.1899 4.51001 18.0699C4.20001 17.7999 4.16001 17.3299 4.43001 17.0099L9.02001 11.6499C9.52001 11.0699 10.24 10.7199 11 10.6899C11.76 10.6699 12.51 10.9499 13.05 11.4899L14 12.4399C14.25 12.6899 14.57 12.8099 14.93 12.8099C15.28 12.7999 15.6 12.6399 15.83 12.3699L20.42 7.00994C20.69 6.69994 21.16 6.65994 21.48 6.92994C21.79 7.19994 21.83 7.66994 21.56 7.98994L16.97 13.3499C16.47 13.9299 15.75 14.2799 14.99 14.3099C14.22 14.3299 13.48 14.0499 12.94 13.5099L12 12.5599C11.75 12.3099 11.42 12.1799 11.07 12.1899C10.72 12.1999 10.4 12.3599 10.17 12.6299L5.58001 17.9899C5.42001 18.1599 5.21001 18.2499 5.00001 18.2499Z" fill="#F6D047"/>
</svg>
