<svg width="24" height="25" viewBox="0 0 24 25" fill="none" xmlns="http://www.w3.org/2000/svg">
<path d="M17 22.5H7C6.59 22.5 6.25 22.16 6.25 21.75C6.25 21.34 6.59 21 7 21H17C17.41 21 17.75 21.34 17.75 21.75C17.75 22.16 17.41 22.5 17 22.5Z" fill="#F6D047"/>
<path d="M20.35 6.02004L16.35 8.88004C15.82 9.26004 15.06 9.03004 14.83 8.42004L12.94 3.38004C12.62 2.51004 11.39 2.51004 11.07 3.38004L9.17001 8.41004C8.94001 9.03004 8.19001 9.26004 7.66001 8.87004L3.66001 6.01004C2.86001 5.45004 1.80001 6.24004 2.13001 7.17004L6.29001 18.82C6.43001 19.22 6.81001 19.48 7.23001 19.48H16.76C17.18 19.48 17.56 19.21 17.7 18.82L21.86 7.17004C22.2 6.24004 21.14 5.45004 20.35 6.02004ZM14.5 15.25H9.50001C9.09001 15.25 8.75001 14.91 8.75001 14.5C8.75001 14.09 9.09001 13.75 9.50001 13.75H14.5C14.91 13.75 15.25 14.09 15.25 14.5C15.25 14.91 14.91 15.25 14.5 15.25Z" fill="#F6D047"/>
</svg>
