<svg xmlns="http://www.w3.org/2000/svg" width="22" height="22" viewBox="0 0 22 22" fill="none">
  <path d="M18.7917 9.34075H16.1425C13.97 9.34075 12.2009 7.57158 12.2009 5.39909V2.74992C12.2009 2.24575 11.7884 1.83325 11.2842 1.83325H7.39752C4.57419 1.83325 2.29169 3.66659 2.29169 6.93909V15.0608C2.29169 18.3333 4.57419 20.1666 7.39752 20.1666H14.6025C17.4259 20.1666 19.7084 18.3333 19.7084 15.0608V10.2574C19.7084 9.75325 19.2959 9.34075 18.7917 9.34075ZM11.2567 14.4649L9.42335 16.2983C9.35919 16.3624 9.27669 16.4174 9.19419 16.4449C9.11169 16.4816 9.02919 16.4999 8.93752 16.4999C8.84585 16.4999 8.76335 16.4816 8.68085 16.4449C8.60752 16.4174 8.53419 16.3624 8.47919 16.3074C8.47002 16.2983 8.46085 16.2983 8.46085 16.2891L6.62752 14.4558C6.36169 14.1899 6.36169 13.7499 6.62752 13.4841C6.89335 13.2183 7.33335 13.2183 7.59919 13.4841L8.25002 14.1533V10.3124C8.25002 9.93658 8.56169 9.62492 8.93752 9.62492C9.31335 9.62492 9.62502 9.93658 9.62502 10.3124V14.1533L10.285 13.4933C10.5509 13.2274 10.9909 13.2274 11.2567 13.4933C11.5225 13.7591 11.5225 14.1991 11.2567 14.4649Z" fill="#00B7FF"/>
  <path d="M15.9775 8.07579C16.8483 8.08495 18.0583 8.08495 19.0942 8.08495C19.6167 8.08495 19.8917 7.47079 19.525 7.10412C18.205 5.77495 15.84 3.38245 14.4833 2.02579C14.1075 1.64995 13.4567 1.90662 13.4567 2.42912V5.62829C13.4567 6.96662 14.5933 8.07579 15.9775 8.07579Z" fill="#00B7FF"/>
</svg>
