<svg width="12" height="13" viewBox="0 0 12 13" fill="none" xmlns="http://www.w3.org/2000/svg">
<path d="M5.60484 3.11083L3.44067 0.946667C3.39984 0.905833 3.34734 0.870833 3.289 0.8475C3.28317 0.8475 3.27734 0.8475 3.2715 0.841667C3.22484 0.824167 3.17817 0.8125 3.12567 0.8125C3.009 0.8125 2.89817 0.859167 2.8165 0.940833L0.640669 3.11083C0.471502 3.28 0.471502 3.56 0.640669 3.72917C0.809836 3.89833 1.08984 3.89833 1.259 3.72917L2.68817 2.3V11.75C2.68817 11.9892 2.8865 12.1875 3.12567 12.1875C3.36484 12.1875 3.56317 11.9892 3.56317 11.75V2.30583L4.9865 3.72917C5.074 3.81667 5.18484 3.8575 5.29567 3.8575C5.4065 3.8575 5.51734 3.81667 5.60484 3.72917C5.774 3.56 5.774 3.28583 5.60484 3.11083Z" fill="#818489"/>
<path d="M11.759 9.27083C11.5898 9.10167 11.3098 9.10167 11.1407 9.27083L9.71151 10.7V1.25C9.71151 1.01083 9.51318 0.8125 9.27401 0.8125C9.03484 0.8125 8.83651 1.01083 8.83651 1.25V10.6942L7.41318 9.27083C7.24401 9.10167 6.96401 9.10167 6.79484 9.27083C6.62568 9.44 6.62568 9.72 6.79484 9.88917L8.95901 12.0533C8.99984 12.0942 9.05234 12.1292 9.11068 12.1525C9.11651 12.1525 9.12234 12.1525 9.12818 12.1583C9.17484 12.1758 9.22734 12.1875 9.27984 12.1875C9.39651 12.1875 9.50734 12.1408 9.58901 12.0592L11.759 9.88917C11.9282 9.71417 11.9282 9.44 11.759 9.27083Z" fill="#202A37"/>
</svg>
