<svg width="25" height="25" viewBox="0 0 25 25" fill="none" xmlns="http://www.w3.org/2000/svg">
<g id="vuesax/bold/truck-fast">
<g id="truck-fast">
<path id="Vector" d="M21.8335 16C22.1135 16 22.3335 16.22 22.3335 16.5V17.5C22.3335 19.16 20.9935 20.5 19.3335 20.5C19.3335 18.85 17.9835 17.5 16.3335 17.5C14.6835 17.5 13.3335 18.85 13.3335 20.5H11.3335C11.3335 18.85 9.9835 17.5 8.3335 17.5C6.6835 17.5 5.3335 18.85 5.3335 20.5C3.6735 20.5 2.3335 19.16 2.3335 17.5V15.5C2.3335 14.95 2.7835 14.5 3.3335 14.5H12.8335C14.2135 14.5 15.3335 13.38 15.3335 12V6.5C15.3335 5.95 15.7835 5.5 16.3335 5.5H17.1735C17.8935 5.5 18.5535 5.89 18.9135 6.51L19.5535 7.63C19.6435 7.79 19.5235 8 19.3335 8C17.9535 8 16.8335 9.12 16.8335 10.5V13.5C16.8335 14.88 17.9535 16 19.3335 16H21.8335Z" fill="white"/>
<path id="Vector_2" d="M8.3335 22.5C9.43807 22.5 10.3335 21.6046 10.3335 20.5C10.3335 19.3954 9.43807 18.5 8.3335 18.5C7.22893 18.5 6.3335 19.3954 6.3335 20.5C6.3335 21.6046 7.22893 22.5 8.3335 22.5Z" fill="white"/>
<path id="Vector_3" d="M16.3335 22.5C17.4381 22.5 18.3335 21.6046 18.3335 20.5C18.3335 19.3954 17.4381 18.5 16.3335 18.5C15.2289 18.5 14.3335 19.3954 14.3335 20.5C14.3335 21.6046 15.2289 22.5 16.3335 22.5Z" fill="white"/>
<path id="Vector_4" d="M22.3335 13.03V14.5H19.3335C18.7835 14.5 18.3335 14.05 18.3335 13.5V10.5C18.3335 9.95 18.7835 9.5 19.3335 9.5H20.6235L22.0735 12.04C22.2435 12.34 22.3335 12.68 22.3335 13.03Z" fill="white"/>
<g id="Group">
<path id="Vector_5" d="M13.4135 2.5H6.0235C4.2335 2.5 2.7335 3.78 2.4035 5.48H6.7735C7.1535 5.48 7.4535 5.79 7.4535 6.17C7.4535 6.55 7.1535 6.85 6.7735 6.85H2.3335V8.23H4.9335C5.3135 8.23 5.6235 8.54 5.6235 8.92C5.6235 9.3 5.3135 9.6 4.9335 9.6H2.3335V10.98H3.1035C3.4835 10.98 3.7935 11.29 3.7935 11.67C3.7935 12.05 3.4835 12.35 3.1035 12.35H2.3335V12.58C2.3335 13.13 2.7835 13.58 3.3335 13.58H12.4835C13.5035 13.58 14.3335 12.75 14.3335 11.73V3.42C14.3335 2.91 13.9235 2.5 13.4135 2.5Z" fill="white"/>
<path id="Vector_6" d="M2.4035 5.47998H2.2535H1.2735C0.893496 5.47998 0.583496 5.78998 0.583496 6.16998C0.583496 6.54998 0.893496 6.84998 1.2735 6.84998H2.1835H2.3335V6.18998C2.3335 5.94998 2.3635 5.70998 2.4035 5.47998Z" fill="white"/>
<path id="Vector_7" d="M2.1835 8.22998H1.2735C0.893496 8.22998 0.583496 8.53998 0.583496 8.91998C0.583496 9.29998 0.893496 9.59998 1.2735 9.59998H2.1835H2.3335V8.22998H2.1835Z" fill="white"/>
<path id="Vector_8" d="M2.1835 10.98H1.2735C0.893496 10.98 0.583496 11.29 0.583496 11.67C0.583496 12.05 0.893496 12.35 1.2735 12.35H2.1835H2.3335V10.98H2.1835Z" fill="white"/>
</g>
</g>
</g>
</svg>
